<?xml version="1.0" encoding="utf-8"?>
<!-- Generator: Adobe Illustrator 15.0.0, SVG Export Plug-In  -->
<!DOCTYPE svg PUBLIC "-//W3C//DTD SVG 1.1//EN" "http://www.w3.org/Graphics/SVG/1.1/DTD/svg11.dtd" [
	<!ENTITY ns_flows "http://ns.adobe.com/Flows/1.0/">
]>
<svg version="1.1"
	 xmlns="http://www.w3.org/2000/svg" xmlns:xlink="http://www.w3.org/1999/xlink" xmlns:a="http://ns.adobe.com/AdobeSVGViewerExtensions/3.0/"
	 x="0px" y="0px" width="20px" height="20px" viewBox="-1.709 -2.434 20 20" enable-background="new -1.709 -2.434 20 20"
	 xml:space="preserve">
<defs>
</defs>
<path fill="#85D6DE" d="M13.818,5.783l-0.404-0.92c0,0,0.941-2.031,0.857-2.109l-1.246-1.163c-0.086-0.081-2.209,0.847-2.209,0.847
	l-0.98-0.379c0,0-0.865-2.059-0.984-2.059H7.095C6.972,0,6.171,2.063,6.171,2.063L5.193,2.442c0,0-2.168-0.881-2.251-0.803
	L1.699,2.806c-0.086,0.079,0.903,2.07,0.903,2.07L2.198,5.794c0,0-2.198,0.81-2.198,0.92v1.647c0,0.115,2.203,0.866,2.203,0.866
	l0.405,0.917c0,0-0.941,2.029-0.858,2.108l1.245,1.166c0.084,0.079,2.209-0.849,2.209-0.849l0.98,0.381c0,0,0.866,2.057,0.985,2.057
	h1.758c0.122,0,0.924-2.063,0.924-2.063l0.98-0.38c0,0,2.164,0.882,2.248,0.805l1.244-1.165c0.087-0.081-0.904-2.07-0.904-2.07
	l0.403-0.919c0,0,2.198-0.811,2.198-0.922V6.646C16.021,6.532,13.818,5.783,13.818,5.783z M10.578,7.503
	c0,1.326-1.152,2.405-2.568,2.405c-1.414,0-2.568-1.079-2.568-2.405C5.442,6.178,6.596,5.1,8.01,5.1
	C9.427,5.101,10.578,6.178,10.578,7.503z"/>
</svg>
