<?xml version="1.0" encoding="utf-8"?>
<!-- Generator: Adobe Illustrator 15.0.0, SVG Export Plug-In  -->
<!DOCTYPE svg PUBLIC "-//W3C//DTD SVG 1.1//EN" "http://www.w3.org/Graphics/SVG/1.1/DTD/svg11.dtd" [
	<!ENTITY ns_flows "http://ns.adobe.com/Flows/1.0/">
]>
<svg version="1.1"
	 xmlns="http://www.w3.org/2000/svg" xmlns:xlink="http://www.w3.org/1999/xlink" xmlns:a="http://ns.adobe.com/AdobeSVGViewerExtensions/3.0/"
	 x="0px" y="0px" width="120px" height="120px" viewBox="-13 -13 120 120" enable-background="new -13 -13 120 120"
	 xml:space="preserve">
<defs>
</defs>
<g>
	<g>
		<path fill="#34495E" d="M22.666,53.993c0.155,1.304,1.268,2.282,2.585,2.282h6.148c1.318,0,2.431-0.979,2.585-2.282l0.453-3.882
			c1.936-0.499,3.79-1.242,5.53-2.21l3.059,2.394c1.04,0.814,2.523,0.723,3.46-0.193l4.346-4.299
			c0.938-0.927,1.02-2.395,0.196-3.423l-2.379-2.985c0.988-1.691,1.761-3.494,2.275-5.379l3.666-0.418
			c1.318-0.152,2.308-1.253,2.308-2.557v-6.082c0-1.304-0.989-2.404-2.308-2.557l-3.614-0.417c-0.494-1.864-1.236-3.647-2.184-5.318
			l2.225-2.781c0.824-1.029,0.731-2.496-0.195-3.423l-4.336-4.289c-0.937-0.927-2.42-1.009-3.46-0.194l-2.729,2.139
			c-1.771-1.029-3.666-1.813-5.653-2.343l-0.412-3.494C34.077,0.978,32.965,0,31.646,0h-6.147c-1.318,0-2.431,0.978-2.585,2.282
			l-0.412,3.494c-2.039,0.54-3.985,1.355-5.798,2.424L13.872,5.98c-1.04-0.815-2.523-0.723-3.461,0.194l-4.346,4.299
			c-0.937,0.927-1.02,2.394-0.195,3.423l2.368,2.964c-0.947,1.691-1.668,3.495-2.142,5.369l-3.79,0.428
			C0.988,22.81,0,23.91,0,25.214v6.082C0,32.6,0.988,33.7,2.307,33.853l3.996,0.458c0.505,1.711,1.205,3.362,2.09,4.91L5.87,42.369
			c-0.824,1.029-0.731,2.496,0.195,3.423l4.346,4.3c0.938,0.926,2.421,1.008,3.461,0.193l3.161-2.476
			c1.627,0.927,3.357,1.649,5.159,2.159L22.666,53.993z M18.413,27.913c0-5.542,4.563-10.055,10.165-10.055
			c5.602,0,10.164,4.513,10.164,10.055c0,5.542-4.563,10.055-10.164,10.055C22.976,37.968,18.413,33.455,18.413,27.913z
			 M95.63,47.88c-0.113-1.283-1.174-2.292-2.481-2.333l-2.585-0.082c-0.536-1.487-1.257-2.893-2.152-4.197l1.41-2.099
			c0.742-1.08,0.536-2.526-0.463-3.362l-3.244-2.71c-0.999-0.835-2.472-0.794-3.419,0.092l-1.792,1.661
			c-1.514-0.723-3.12-1.233-4.778-1.528l-0.505-2.445c-0.257-1.263-1.441-2.139-2.739-2.038l-4.232,0.357
			c-1.298,0.112-2.317,1.161-2.358,2.455l-0.082,2.485c-1.628,0.581-3.162,1.375-4.563,2.374l-2.142-1.406
			c-1.092-0.713-2.544-0.509-3.389,0.479l-2.739,3.229c-0.845,0.988-0.804,2.445,0.093,3.382l1.874,1.976
			c-0.648,1.447-1.112,2.964-1.38,4.523l-2.678,0.54c-1.276,0.255-2.162,1.427-2.06,2.71l0.36,4.188
			c0.113,1.283,1.174,2.291,2.482,2.332l2.894,0.092c0.525,1.365,1.215,2.659,2.05,3.871l-1.617,2.415
			c-0.721,1.079-0.515,2.517,0.484,3.352l3.243,2.71c0.999,0.835,2.472,0.794,3.419-0.092l2.122-1.967
			c1.39,0.643,2.853,1.121,4.356,1.406l0.587,2.873c0.257,1.264,1.441,2.139,2.739,2.037l4.232-0.356
			c1.298-0.112,2.317-1.161,2.358-2.455l0.093-2.812c1.545-0.54,3.007-1.273,4.355-2.18l2.338,1.527
			c1.092,0.713,2.544,0.51,3.389-0.479l2.739-3.209c0.845-0.988,0.803-2.445-0.093-3.383l-1.885-1.976
			c0.69-1.446,1.194-2.976,1.483-4.544l2.574-0.52c1.277-0.254,2.163-1.426,2.06-2.71L95.63,47.88z M73.406,60.014
			c-4.572,0.387-8.609-2.984-8.99-7.508c-0.392-4.523,3.018-8.517,7.59-8.894c4.572-0.387,8.609,2.985,8.99,7.508
			C81.388,55.644,77.979,59.637,73.406,60.014z M54.509,71.516l-1.668-0.215c-0.319-1.242-0.793-2.444-1.411-3.564l1.04-1.264
			c0.824-1.009,0.762-2.455-0.154-3.383l-1.823-1.844c-0.916-0.927-2.379-1.029-3.419-0.234l-1.246,0.947
			c-1.174-0.702-2.431-1.242-3.748-1.609l-0.165-1.6c-0.134-1.283-1.226-2.271-2.533-2.281l-2.605-0.031
			c-1.309-0.02-2.42,0.938-2.585,2.221l-0.206,1.59c-1.359,0.346-2.667,0.876-3.883,1.568l-1.287-1.039
			c-1.02-0.814-2.481-0.754-3.419,0.153l-1.874,1.813c-0.938,0.906-1.04,2.354-0.237,3.382l1.103,1.406
			c-0.639,1.12-1.144,2.313-1.473,3.565l-1.803,0.184c-1.298,0.132-2.296,1.212-2.307,2.506l-0.031,2.577
			c-0.021,1.294,0.947,2.394,2.245,2.558l1.916,0.244c0.319,1.151,0.772,2.252,1.359,3.291l-1.236,1.507
			c-0.823,1.009-0.762,2.456,0.154,3.382l1.823,1.845c0.916,0.927,2.379,1.028,3.419,0.234l1.534-1.172
			c1.082,0.632,2.225,1.131,3.419,1.478l0.206,1.956c0.134,1.283,1.226,2.271,2.533,2.282l2.606,0.03
			c1.308,0.021,2.42-0.938,2.584-2.222l0.237-1.854c1.298-0.316,2.533-0.795,3.707-1.426l1.442,1.15
			c1.02,0.815,2.481,0.754,3.419-0.152l1.863-1.803c0.938-0.907,1.041-2.354,0.237-3.383l-1.102-1.416
			c0.68-1.121,1.204-2.313,1.565-3.565l1.709-0.173c1.298-0.133,2.297-1.213,2.307-2.507l0.031-2.577
			C56.774,72.778,55.807,71.678,54.509,71.516z M37.764,81.773c-3.738-0.04-6.735-3.086-6.693-6.784
			c0.041-3.698,3.12-6.663,6.858-6.622s6.735,3.087,6.693,6.785C44.581,78.85,41.502,81.814,37.764,81.773z"/>
	</g>
</g>
</svg>
