<?xml version="1.0" encoding="utf-8"?>
<!-- Generator: Adobe Illustrator 15.0.0, SVG Export Plug-In  -->
<!DOCTYPE svg PUBLIC "-//W3C//DTD SVG 1.1//EN" "http://www.w3.org/Graphics/SVG/1.1/DTD/svg11.dtd" [
	<!ENTITY ns_flows "http://ns.adobe.com/Flows/1.0/">
]>
<svg version="1.1"
	 xmlns="http://www.w3.org/2000/svg" xmlns:xlink="http://www.w3.org/1999/xlink" xmlns:a="http://ns.adobe.com/AdobeSVGViewerExtensions/3.0/"
	 x="0px" y="0px" width="20px" height="20px" viewBox="-2.5 -2.5 20 20" enable-background="new -2.5 -2.5 20 20"
	 xml:space="preserve">
<defs>
</defs>
<path fill="#8FD9E0" d="M14.896,1.093l-0.063-0.059c-1.472-1.379-3.878-1.379-5.349,0L6.077,4.229c-1.471,1.379-1.471,3.635,0,5.015
	L6.14,9.303c0.122,0.115,0.252,0.219,0.386,0.314l1.248-1.17C7.628,8.367,7.49,8.271,7.366,8.154l-0.063-0.06
	c-0.799-0.749-0.799-1.967,0-2.715l3.408-3.195c0.799-0.749,2.098-0.749,2.896,0l0.063,0.059c0.799,0.749,0.799,1.967,0,2.716
	l-1.542,1.445c0.269,0.62,0.395,1.28,0.384,1.939l2.385-2.235C16.367,4.729,16.367,2.473,14.896,1.093z M9.859,5.697
	C9.737,5.583,9.607,5.479,9.473,5.383L8.226,6.553c0.145,0.081,0.283,0.177,0.407,0.294l0.064,0.059
	c0.798,0.749,0.798,1.967,0,2.715l-3.409,3.195c-0.799,0.749-2.098,0.749-2.896,0l-0.063-0.059c-0.798-0.749-0.798-1.967,0-2.716
	l1.542-1.446c-0.268-0.619-0.395-1.28-0.383-1.938L1.103,8.893c-1.471,1.379-1.471,3.635,0,5.014l0.063,0.06
	c1.471,1.379,3.878,1.379,5.349,0l3.407-3.194c1.471-1.379,1.471-3.636,0-5.015L9.859,5.697z"/>
</svg>
