<?xml version="1.0" encoding="utf-8"?>
<!-- Generator: Adobe Illustrator 15.0.0, SVG Export Plug-In  -->
<!DOCTYPE svg PUBLIC "-//W3C//DTD SVG 1.1//EN" "http://www.w3.org/Graphics/SVG/1.1/DTD/svg11.dtd" [
	<!ENTITY ns_flows "http://ns.adobe.com/Flows/1.0/">
]>
<svg version="1.1"
	 xmlns="http://www.w3.org/2000/svg" xmlns:xlink="http://www.w3.org/1999/xlink" xmlns:a="http://ns.adobe.com/AdobeSVGViewerExtensions/3.0/"
	 x="0px" y="0px" width="20px" height="16px" viewBox="-2 -1 20 16" enable-background="new -2 -1 20 16" xml:space="preserve">
<defs>
</defs>
<g>
	<g>
		<path fill="#FFFFFF" d="M0,0v13h16V0H0z M15,12H1L1.04,2H15V12z M7,4H2v1h5V4z M7,6H2v1h5V6z M5,8H2v1h3V8z M10,7
			c1.104,0,2-0.896,2-2s-0.896-2-2-2S8,3.896,8,5S8.896,7,10,7z M6,9v2h8V9c0,0,0-1-1-1H7C7,8,6,8,6,9z"/>
	</g>
</g>
</svg>
