<?xml version="1.0" encoding="utf-8"?>
<!-- Generator: Adobe Illustrator 15.0.0, SVG Export Plug-In  -->
<!DOCTYPE svg PUBLIC "-//W3C//DTD SVG 1.1//EN" "http://www.w3.org/Graphics/SVG/1.1/DTD/svg11.dtd" [
	<!ENTITY ns_flows "http://ns.adobe.com/Flows/1.0/">
]>
<svg version="1.1"
	 xmlns="http://www.w3.org/2000/svg" xmlns:xlink="http://www.w3.org/1999/xlink" xmlns:a="http://ns.adobe.com/AdobeSVGViewerExtensions/3.0/"
	 x="0px" y="0px" width="22px" height="22px" viewBox="-2.313 -2.53 22 22" enable-background="new -2.313 -2.53 22 22"
	 xml:space="preserve">
<defs>
</defs>
<g>
	<g>
		<path fill="#FFFFFF" d="M5.907,9.062h8.983c1.084,0,2.108-0.866,2.287-1.932l0.821-4.925H4.726L4.346,0H0.982
			C0.439,0,0,0.438,0,0.98v0.979h2.691l1.731,10.05c0.038,0.221,0.251,0.4,0.477,0.4h11.627c0.543,0,0.982-0.438,0.982-0.98v-0.979
			H6.146L5.907,9.062z M7.937,13.615c-0.938,0-1.698,0.758-1.698,1.693s0.76,1.694,1.698,1.694c0.938,0,1.697-0.759,1.697-1.694
			S8.874,13.615,7.937,13.615z M13.827,13.614c-0.937,0-1.696,0.759-1.696,1.694s0.76,1.693,1.696,1.693
			c0.938,0,1.699-0.758,1.699-1.693S14.765,13.614,13.827,13.614z"/>
	</g>
</g>
</svg>
