<?xml version="1.0" encoding="utf-8"?>
<!-- Generator: Adobe Illustrator 15.0.0, SVG Export Plug-In  -->
<!DOCTYPE svg PUBLIC "-//W3C//DTD SVG 1.1//EN" "http://www.w3.org/Graphics/SVG/1.1/DTD/svg11.dtd" [
	<!ENTITY ns_flows "http://ns.adobe.com/Flows/1.0/">
]>
<svg version="1.1"
	 xmlns="http://www.w3.org/2000/svg" xmlns:xlink="http://www.w3.org/1999/xlink" xmlns:a="http://ns.adobe.com/AdobeSVGViewerExtensions/3.0/"
	 x="0px" y="0px" width="20px" height="15px" viewBox="-1 -1 20 15" enable-background="new -1 -1 20 15" xml:space="preserve">
<defs>
</defs>
<path fill="#FFFFFF" d="M15.691,4.902c0.024-0.188,0.059-0.375,0.059-0.569C15.75,1.94,13.736,0,11.25,0
	C9.78,0,8.487,0.688,7.667,1.739C7.371,1.67,7.066,1.625,6.75,1.625c-2.175,0-3.938,1.697-3.938,3.792
	c0,0.06,0.016,0.112,0.018,0.171C1.199,6.05,0,7.487,0,9.209C0,11.303,1.762,13,3.938,13H13.5c2.486,0,4.5-1.939,4.5-4.334
	C18,7.044,17.063,5.645,15.691,4.902z M10.125,7.584v3.25h-2.25v-3.25h-2.25L9,4.333l3.375,3.25H10.125z"/>
</svg>
