<?xml version="1.0" encoding="utf-8"?>
<!-- Generator: Adobe Illustrator 15.0.0, SVG Export Plug-In  -->
<!DOCTYPE svg PUBLIC "-//W3C//DTD SVG 1.1//EN" "http://www.w3.org/Graphics/SVG/1.1/DTD/svg11.dtd" [
	<!ENTITY ns_flows "http://ns.adobe.com/Flows/1.0/">
]>
<svg version="1.1"
	 xmlns="http://www.w3.org/2000/svg" xmlns:xlink="http://www.w3.org/1999/xlink" xmlns:a="http://ns.adobe.com/AdobeSVGViewerExtensions/3.0/"
	 x="0px" y="0px" width="14px" height="14px" viewBox="-2.279 -4.032 14 14" enable-background="new -2.279 -4.032 14 14"
	 xml:space="preserve">
<defs>
</defs>
<path fill="#34495E" d="M9.896,1.121L8.381,0.047C8.334,0.014,8.273-0.003,8.211,0C8.15,0.003,8.092,0.026,8.051,0.064L3.982,3.941
	L2.029,1.855C1.991,1.816,1.936,1.79,1.875,1.783C1.813,1.775,1.751,1.789,1.702,1.819l-1.609,0.98
	C-0.01,2.862-0.031,2.98,0.047,3.063l3.617,3.861C3.707,6.97,3.772,6.998,3.842,7c0.002,0,0.005,0,0.008,0
	c0.067,0,0.131-0.023,0.176-0.064l5.89-5.549C10.002,1.308,9.993,1.189,9.896,1.121z"/>
</svg>
