<?xml version="1.0" encoding="utf-8"?>
<!-- Generator: Adobe Illustrator 15.0.0, SVG Export Plug-In  -->
<!DOCTYPE svg PUBLIC "-//W3C//DTD SVG 1.1//EN" "http://www.w3.org/Graphics/SVG/1.1/DTD/svg11.dtd" [
	<!ENTITY ns_flows "http://ns.adobe.com/Flows/1.0/">
]>
<svg version="1.1"
	 xmlns="http://www.w3.org/2000/svg" xmlns:xlink="http://www.w3.org/1999/xlink" xmlns:a="http://ns.adobe.com/AdobeSVGViewerExtensions/3.0/"
	 x="0px" y="0px" width="22px" height="22px" viewBox="-2.47 -3 22 22" enable-background="new -2.47 -3 22 22"
	 xml:space="preserve">
<defs>
</defs>
<g>
	<g>
		<path fill="#FFFFFF" d="M17.56,5.743h-1.238c0-0.095-0.013-0.192-0.041-0.288C15.339,2.243,12.349,0,9.009,0
			s-6.33,2.242-7.271,5.453c-0.159,0.542,0.149,1.11,0.689,1.269C2.966,6.881,3.533,6.571,3.692,6.03
			C4.38,3.683,6.566,2.044,9.009,2.044c2.34,0,4.441,1.507,5.219,3.699h-1.181c-0.469,0-0.58,0.27-0.248,0.602l1.904,1.911
			c0.331,0.333,0.868,0.333,1.2,0l1.904-1.911C18.14,6.013,18.028,5.743,17.56,5.743z M15.571,9.277
			c-0.539-0.158-1.106,0.15-1.265,0.692c-0.688,2.347-2.875,3.986-5.316,3.986c-2.341,0-4.442-1.508-5.22-3.699h1.181
			c0.469,0,0.58-0.27,0.249-0.602L3.296,7.744c-0.332-0.333-0.869-0.333-1.201,0L0.19,9.655c-0.331,0.333-0.22,0.602,0.249,0.602
			h1.237c0,0.096,0.013,0.192,0.041,0.288C2.659,13.756,5.649,16,8.99,16c3.339,0,6.329-2.242,7.271-5.453
			C16.42,10.005,16.111,9.437,15.571,9.277z"/>
	</g>
</g>
</svg>
