<?xml version="1.0" encoding="utf-8"?>
<!-- Generator: Adobe Illustrator 15.0.0, SVG Export Plug-In  -->
<!DOCTYPE svg PUBLIC "-//W3C//DTD SVG 1.1//EN" "http://www.w3.org/Graphics/SVG/1.1/DTD/svg11.dtd" [
	<!ENTITY ns_flows "http://ns.adobe.com/Flows/1.0/">
]>
<svg version="1.1"
	 xmlns="http://www.w3.org/2000/svg" xmlns:xlink="http://www.w3.org/1999/xlink" xmlns:a="http://ns.adobe.com/AdobeSVGViewerExtensions/3.0/"
	 x="0px" y="0px" width="22px" height="22px" viewBox="-4.626 -3.438 22 22" enable-background="new -4.626 -3.438 22 22"
	 xml:space="preserve">
<defs>
</defs>
<g>
	<g>
		<path fill="#FFFFFF" d="M11.608,1.007H8.687c0,0,0-0.226,0-0.504S8.064,0,7.297,0H6.067C5.3,0,4.678,0.226,4.678,0.503v0.504H1.39
			C0.622,1.007,0,1.352,0,1.777v0.77h12.998c0,0,0-0.345,0-0.77S12.376,1.007,11.608,1.007z M0.851,14.644
			C0.851,15.392,1.473,16,2.24,16h8.518c0.768,0,1.39-0.607,1.39-1.355V3.14H0.851V14.644z M9.396,4.793h1.39v9.208h-1.39V4.793z
			 M5.805,4.793h1.39v9.208h-1.39V4.793z M2.212,4.793h1.39v9.208h-1.39V4.793z"/>
	</g>
</g>
</svg>
