<?xml version="1.0" encoding="utf-8"?>
<!-- Generator: Adobe Illustrator 15.0.0, SVG Export Plug-In  -->
<!DOCTYPE svg PUBLIC "-//W3C//DTD SVG 1.1//EN" "http://www.w3.org/Graphics/SVG/1.1/DTD/svg11.dtd" [
	<!ENTITY ns_flows "http://ns.adobe.com/Flows/1.0/">
]>
<svg version="1.1"
	 xmlns="http://www.w3.org/2000/svg" xmlns:xlink="http://www.w3.org/1999/xlink" xmlns:a="http://ns.adobe.com/AdobeSVGViewerExtensions/3.0/"
	 x="0px" y="0px" width="20px" height="20px" viewBox="-2.188 -3 20 20" enable-background="new -2.188 -3 20 20"
	 xml:space="preserve">
<defs>
</defs>
<g>
	<g>
		<path fill="#FFFFFF" d="M8,7.947c1.981,0,3.588-1.779,3.588-3.974C11.588,0.93,9.981,0,8,0S4.413,0.93,4.413,3.974
			C4.413,6.168,6.019,7.947,8,7.947z M15.922,13.797l-1.811-3.859c-0.082-0.176-0.228-0.322-0.408-0.412l-2.81-1.384
			c-0.062-0.03-0.137-0.024-0.192,0.016C9.906,8.726,8.973,9.026,8,9.026S6.093,8.726,5.299,8.157
			c-0.056-0.04-0.131-0.046-0.193-0.016L2.297,9.525c-0.181,0.09-0.326,0.236-0.409,0.412l-1.81,3.859
			c-0.125,0.266-0.099,0.57,0.069,0.813C0.314,14.854,0.598,15,0.905,15h14.189c0.308,0,0.591-0.146,0.759-0.39
			C16.021,14.367,16.047,14.063,15.922,13.797z"/>
	</g>
</g>
</svg>
